<svg id="Group_2912" data-name="Group 2912" xmlns="http://www.w3.org/2000/svg" width="116" height="116" viewBox="0 0 116 116">
  <circle id="Ellipse_149" data-name="Ellipse 149" cx="58" cy="58" r="58" transform="translate(0 0)" fill="#00bcc3"/>
  <g id="Group_3118" data-name="Group 3118" transform="translate(22.535 38.353)">
    <path id="Path_2294" data-name="Path 2294" d="M56.363,61.1a21.4,21.4,0,0,0-10.483,2.511,19.268,19.268,0,0,0-7.344,7.03,20.688,20.688,0,0,0,0,20.212,18.423,18.423,0,0,0,7.344,7.03,21.4,21.4,0,0,0,10.483,2.511,21.4,21.4,0,0,0,10.483-2.511,19.269,19.269,0,0,0,7.344-7.03,19.577,19.577,0,0,0,2.636-10.106V61.1Zm8.662,25.3a9.606,9.606,0,0,1-8.662,5.21A9.606,9.606,0,0,1,47.7,86.4a12.765,12.765,0,0,1,0-11.3,9.606,9.606,0,0,1,8.662-5.21,9.606,9.606,0,0,1,8.662,5.21,12.765,12.765,0,0,1,0,11.3Z" transform="translate(-35.9 -61.1)" fill="#fff"/>
    <path id="Path_2295" data-name="Path 2295" d="M109.517,86.183,105.5,90.639V77.52L120.188,61.2h11.8l-15.5,17.387,16.32,21.907H120.377Z" transform="translate(-61.812 -61.137)" fill="#fff"/>
  </g>
</svg>
